<?xml version="1.0" encoding="UTF-8" standalone="no"?>
<!-- Created with Inkscape (http://www.inkscape.org/) -->

<svg
   width="500"
   height="273.5"
   viewBox="0 0 132.29167 72.363542"
   version="1.1"
   id="svg1"
   xml:space="preserve"
   xmlns="http://www.w3.org/2000/svg"
   xmlns:svg="http://www.w3.org/2000/svg"
   xmlns:rdf="http://www.w3.org/1999/02/22-rdf-syntax-ns#"
   xmlns:cc="http://creativecommons.org/ns#"
   xmlns:dc="http://purl.org/dc/elements/1.1/"><title
     id="title29">Institute of Information Technology, University of Dhaka - তথ্য প্রযুক্তি ইনস্টিটিউট, ঢাকা বিশ্ববিদ্যালয়</title><defs
     id="defs1" /><g
     id="layer1"
     transform="translate(-5.5903566,-70.392087)"><g
       id="g29"
       transform="matrix(0.49742971,0,0,0.49742971,3.0741309,35.653579)"><path
         id="path29"
         style="vector-effect:none;fill:#2e3192;fill-opacity:1;fill-rule:evenodd;stroke-width:0.264583;stop-color:#000000"
         d="M 5.5903564,70.392086 V 88.459717 H 23.753589 V 153.88828 H 5.5903564 v 18.06763 H 70.884045 V 153.88828 H 52.720813 V 88.459717 H 70.884045 V 70.392086 Z m 83.2755376,0 V 88.459717 H 107.02913 V 153.88828 H 88.865894 v 18.06763 H 154.15958 V 153.88828 H 135.99635 V 88.459717 h 18.16323 V 70.392086 Z m 83.276056,0 v 19.856152 h 34.68419 v 81.707672 h 28.9667 V 90.248238 h 34.68419 V 70.392086 Z M 5.5903564,179.36993 v 35.38492 H 270.47703 v -35.38492 z" /><path
         id="path28"
         style="font-weight:bold;font-size:28.9769px;line-height:1.25;font-family:Arial;-inkscape-font-specification:'Arial Bold';letter-spacing:-1.32027px;fill:#ffffff;fill-opacity:1;stroke-width:0.724425"
         d="m 171.29162,183.99463 c -1.10361,0 -2.01875,0.1981 -2.74505,0.59428 -0.71688,0.38673 -1.21216,0.89156 -1.4857,1.51412 -0.26411,0.62254 -0.39584,1.56531 -0.39584,2.82928 v 1.13223 h -2.20762 v 3.12694 h 2.20762 v 11.89902 h 3.97546 v -11.89902 h 2.9714 v -3.12694 h -2.9714 v -1.06143 c 0,-0.76404 0.12269,-1.27792 0.36794,-1.54203 0.25468,-0.27354 0.67002,-0.41031 1.2454,-0.41031 0.58482,0 1.19323,0.0754 1.82521,0.22634 l 0.53744,-2.77295 c -1.08475,-0.33958 -2.19296,-0.50953 -3.32486,-0.50953 z m -155.117674,0.35346 v 11.06444 c 0,2.32042 0.136767,4.07526 0.410311,5.26377 0.188652,0.80176 0.579836,1.57057 1.174089,2.30631 0.594252,0.72631 1.400772,1.32013 2.41949,1.78233 1.02815,0.45275 2.532578,0.67954 4.51342,0.67954 1.641267,0 2.971735,-0.20767 3.990454,-0.6227 1.018718,-0.42447 1.829758,-0.99065 2.433443,-1.69809 0.613117,-0.70744 1.032973,-1.5753 1.259355,-2.60346 0.226381,-1.02815 0.339514,-2.787 0.339514,-5.27719 v -10.89495 h -4.188375 v 11.47476 c 0,1.64126 -0.06134,2.81585 -0.183968,3.52329 -0.122624,0.70744 -0.485655,1.3063 -1.089339,1.79679 -0.603685,0.48107 -1.499704,0.72192 -2.688208,0.72192 -1.16964,0 -2.093812,-0.25493 -2.772958,-0.76429 -0.669712,-0.51879 -1.094605,-1.20262 -1.273824,-2.05156 -0.103758,-0.52822 -0.155546,-1.68369 -0.155546,-3.46645 v -11.23446 z m 35.694979,0 v 3.67885 h 3.975985 v -3.67885 z m 59.776205,0 v 3.67885 h 3.97547 v -3.67885 z m 69.62676,0 v 20.74241 h 7.88065 c 1.54695,0 2.78288,-0.14632 3.70727,-0.43874 1.23567,-0.39616 2.21667,-0.94775 2.94297,-1.65519 0.96213,-0.93383 1.70226,-2.15517 2.22106,-3.66438 0.42446,-1.23567 0.63665,-2.70742 0.63665,-4.41472 0,-1.9431 -0.22627,-3.57476 -0.67903,-4.8953 -0.45276,-1.33 -1.11296,-2.4528 -1.98076,-3.36776 -0.8678,-0.91496 -1.91013,-1.55152 -3.12694,-1.90996 -0.90552,-0.2641 -2.2214,-0.39636 -3.94756,-0.39636 z m 19.57761,0 v 20.74241 h 3.97599 v -7.52719 c 0,-1.26397 0.11765,-2.21681 0.35346,-2.85823 0.24525,-0.65084 0.6274,-1.13657 1.14619,-1.45727 0.51879,-0.32071 1.10809,-0.48111 1.76837,-0.48111 0.57538,0 1.05206,0.12773 1.42937,0.38241 0.38673,0.24524 0.65523,0.58012 0.80615,1.00459 0.15092,0.42446 0.22634,1.42406 0.22634,2.9993 v 7.9375 h 3.97599 v -8.81445 c 0,-1.34886 -0.0709,-2.34445 -0.21239,-2.98587 -0.13206,-0.64142 -0.38648,-1.22619 -0.76378,-1.75441 -0.36788,-0.52823 -0.91998,-0.96216 -1.65572,-1.30173 -0.73574,-0.33957 -1.56085,-0.50901 -2.47581,-0.50901 -1.78275,0 -3.31534,0.74969 -4.59817,2.24947 v -7.62641 z m 31.04772,0 v 20.74241 h 3.97599 v -4.81056 l 1.85363,-1.93839 3.77755,6.74895 h 4.28707 l -5.50405,-9.53637 5.13612,-5.48959 h -4.89531 l -4.65501,5.29167 v -11.00812 z m -108.81868,0.41031 -3.98994,2.32079 v 2.98535 h -1.82521 v 3.16932 h 1.82521 v 6.55102 c 0,1.40545 0.0422,2.33918 0.12713,2.80138 0.10376,0.65084 0.28779,1.16975 0.5519,1.55649 0.27355,0.3773 0.69792,0.68855 1.27331,0.93379 0.57538,0.23582 1.22151,0.35347 1.93838,0.35347 1.16965,0 2.21702,-0.19811 3.14141,-0.59428 l -0.34003,-3.08405 c -0.69801,0.25468 -1.231,0.38189 -1.59887,0.38189 -0.26411,0 -0.49037,-0.0664 -0.67903,-0.19844 -0.17921,-0.13205 -0.29686,-0.29697 -0.35346,-0.49506 -0.0471,-0.20752 -0.0708,-0.92454 -0.0708,-2.15077 v -6.05544 h 2.71663 v -3.16932 h -2.71663 z m 62.38121,3.09904 h 1.88205 c 1.7073,0 2.85321,0.0659 3.43803,0.19792 0.78291,0.16979 1.42903,0.49511 1.93839,0.97617 0.50936,0.48106 0.90559,1.15082 1.18855,2.00918 0.28298,0.85836 0.42427,2.08926 0.42427,3.6928 0,1.60352 -0.14129,2.87214 -0.42427,3.80597 -0.28296,0.92438 -0.65104,1.58962 -1.1038,1.99522 -0.44334,0.4056 -1.00448,0.69321 -1.68362,0.863 -0.51879,0.13206 -1.36304,0.19792 -2.53266,0.19792 h -3.12694 z m -141.592404,1.86759 c -1.990274,0 -3.641025,0.84875 -4.952152,2.54661 v -2.2071 h -3.692798 v 15.02596 h 3.975985 v -6.80579 c 0,-1.679 0.09905,-2.82943 0.297139,-3.45199 0.207516,-0.62254 0.584624,-1.12234 1.131714,-1.49965 0.547089,-0.37729 1.165056,-0.56637 1.853634,-0.56637 0.537656,0 0.995223,0.13225 1.372526,0.39636 0.386735,0.26411 0.664788,0.6367 0.834574,1.11776 0.169786,0.47163 0.254765,1.51849 0.254765,3.14089 v 7.66879 h 3.975468 v -9.33793 c 0,-1.16021 -0.07542,-2.05171 -0.226343,-2.67426 -0.141489,-0.62255 -0.400944,-1.17917 -0.778247,-1.66967 -0.36787,-0.4905 -0.914936,-0.89123 -1.641244,-1.20251 -0.726308,-0.3207 -1.527792,-0.4811 -2.405021,-0.4811 z m 35.548217,0 c -1.990271,0 -3.635989,0.70746 -4.937683,2.12235 -1.301694,1.40545 -1.952336,3.35336 -1.952336,5.84357 0,2.0846 0.494762,3.81077 1.485181,5.17849 1.254531,1.7073 3.188376,2.56057 5.801196,2.56057 1.6507,0 3.023401,-0.37711 4.117578,-1.13171 1.103611,-0.76404 1.910132,-1.87226 2.419491,-3.32486 l -3.962032,-0.66508 c -0.216949,0.75461 -0.53775,1.30167 -0.962215,1.64124 -0.424466,0.33958 -0.947898,0.50953 -1.570447,0.50953 -0.914959,0 -1.678734,-0.32584 -2.29185,-0.97668 -0.613114,-0.66029 -0.933915,-1.57994 -0.962215,-2.75901 h 9.960632 c 0.0566,-3.04671 -0.561373,-5.30588 -1.853633,-6.77736 -1.292263,-1.48091 -3.056149,-2.22105 -5.291667,-2.22105 z m 16.012459,0 c -0.641413,0 -1.21715,0.1604 -1.726508,0.4811 -0.499927,0.32071 -1.065588,0.98543 -1.697571,1.99471 v -2.1363 h -3.692798 v 15.02596 h 3.975468 v -4.64055 c 0,-2.55623 0.108612,-4.23565 0.325561,-5.03742 0.226382,-0.80177 0.533105,-1.35335 0.919841,-1.65519 0.386736,-0.31127 0.858379,-0.46716 1.414901,-0.46716 0.575386,0 1.197873,0.21723 1.867586,0.65113 l 1.230933,-3.46646 c -0.8395,-0.49992 -1.711884,-0.74982 -2.617413,-0.74982 z m 8.484758,0 c -2.16006,0 -3.75399,0.44297 -4.782141,1.32963 -1.028151,0.88667 -1.542542,1.98131 -1.542542,3.283 0,1.44319 0.594333,2.56999 1.782837,3.38119 0.858366,0.58483 2.891256,1.23095 6.098336,1.93839 0.68859,0.16035 1.13208,0.33483 1.33016,0.52348 0.18865,0.19809 0.28267,0.44798 0.28267,0.74982 0,0.44334 -0.17448,0.79732 -0.52348,1.06144 -0.51879,0.3773 -1.29214,0.56585 -2.32028,0.56585 -0.93383,0 -1.66041,-0.19811 -2.1792,-0.59427 -0.51879,-0.4056 -0.86271,-0.9949 -1.03249,-1.76837 l -3.990457,0.60823 c 0.36787,1.42432 1.146237,2.55164 2.334741,3.38171 1.197936,0.83006 2.820536,1.24488 4.867406,1.24488 2.25439,0 3.95693,-0.49528 5.1077,-1.4857 1.15078,-0.99042 1.726,-2.17404 1.726,-3.5512 0,-1.26397 -0.41482,-2.24949 -1.24489,-2.95693 -0.8395,-0.69801 -2.3203,-1.28782 -4.44263,-1.76888 -2.1129,-0.48106 -3.34883,-0.85365 -3.70727,-1.11776 -0.26411,-0.19809 -0.39635,-0.43843 -0.39635,-0.72141 0,-0.33013 0.15136,-0.59915 0.4532,-0.80666 0.45276,-0.29242 1.20246,-0.43874 2.24947,-0.43874 0.83007,0 1.46664,0.15588 1.90997,0.46716 0.45277,0.31127 0.75949,0.75928 0.91984,1.3441 l 3.74964,-0.6935 c -0.37729,-1.31112 -1.06617,-2.30116 -2.06602,-2.97087 -0.99985,-0.66972 -2.52791,-1.00459 -4.58422,-1.00459 z m 52.72495,0 c -1.47148,0 -2.80648,0.32532 -4.0044,0.97616 -1.18851,0.65085 -2.10816,1.59413 -2.75901,2.82981 -0.65085,1.23565 -0.97617,2.51383 -0.97617,3.83439 0,1.72615 0.32532,3.19289 0.97617,4.40024 0.65085,1.19794 1.59917,2.10803 2.84427,2.73059 1.25453,0.62254 2.57042,0.93379 3.94756,0.93379 2.22609,0 4.06991,-0.74518 5.53197,-2.23552 1.47146,-1.49978 2.2071,-3.38636 2.2071,-5.6596 0,-2.25439 -0.72606,-4.11733 -2.17868,-5.58881 -1.45261,-1.48091 -3.31556,-2.22105 -5.58881,-2.22105 z m 66.4776,0 c -1.95255,0 -3.4243,0.34895 -4.41472,1.04696 -0.99042,0.69801 -1.68833,1.77304 -2.09393,3.22564 l 3.60805,0.65113 c 0.24525,-0.69802 0.56606,-1.18373 0.96221,-1.45728 0.39618,-0.28297 0.94776,-0.42478 1.6552,-0.42478 1.04702,0 1.75952,0.16544 2.13682,0.49558 0.37731,0.3207 0.56586,0.86273 0.56586,1.62677 v 0.39636 c -0.71688,0.30184 -2.00461,0.62716 -3.86281,0.97617 -1.37716,0.26411 -2.43358,0.57535 -3.16932,0.93379 -0.72631,0.349 -1.29249,0.85835 -1.69809,1.52807 -0.4056,0.66028 -0.60823,1.41502 -0.60823,2.26395 0,1.28282 0.44349,2.34377 1.33015,3.18327 0.8961,0.8395 2.11744,1.25935 3.66438,1.25935 0.87723,0 1.70286,-0.16492 2.47633,-0.49506 0.77347,-0.33014 1.49953,-0.82542 2.17868,-1.4857 0.0283,0.0755 0.0756,0.23134 0.14159,0.46716 0.15092,0.51879 0.27813,0.90997 0.38189,1.17409 h 3.93361 c -0.349,-0.71688 -0.58986,-1.38663 -0.72192,-2.00918 -0.12262,-0.63199 -0.18397,-1.60795 -0.18397,-2.92851 l 0.0429,-4.64106 c 0,-1.72616 -0.17952,-2.90978 -0.53796,-3.5512 -0.34899,-0.65085 -0.95741,-1.18384 -1.82521,-1.59887 -0.8678,-0.42447 -2.18819,-0.63665 -3.96151,-0.63665 z m 29.59044,0 c -1.95255,0 -3.42378,0.34895 -4.4142,1.04696 -0.99042,0.69801 -1.68832,1.77304 -2.09393,3.22564 l 3.60753,0.65113 c 0.24525,-0.69802 0.56605,-1.18373 0.96222,-1.45728 0.39616,-0.28297 0.94826,-0.42478 1.65571,-0.42478 1.04702,0 1.759,0.16544 2.1363,0.49558 0.37731,0.3207 0.56586,0.86273 0.56586,1.62677 v 0.39636 c -0.71688,0.30184 -2.00459,0.62716 -3.86281,0.97617 -1.37716,0.26411 -2.43357,0.57535 -3.16932,0.93379 -0.7263,0.349 -1.29197,0.85835 -1.69757,1.52807 -0.4056,0.66028 -0.60875,1.41502 -0.60875,2.26395 0,1.28282 0.44349,2.34377 1.33015,3.18327 0.8961,0.8395 2.11795,1.25935 3.6649,1.25935 0.87723,0 1.70235,-0.16492 2.47581,-0.49506 0.77348,-0.33014 1.49954,-0.82542 2.17868,-1.4857 0.0283,0.0755 0.0756,0.23134 0.1416,0.46716 0.15092,0.51879 0.27864,0.90997 0.3824,1.17409 h 3.93309 c -0.34899,-0.71688 -0.58934,-1.38663 -0.7214,-2.00918 -0.12262,-0.63199 -0.18397,-1.60795 -0.18397,-2.92851 l 0.0424,-4.64106 c 0,-1.72616 -0.179,-2.90978 -0.53744,-3.5512 -0.349,-0.65085 -0.95741,-1.18384 -1.82521,-1.59887 -0.86779,-0.42447 -2.18871,-0.63665 -3.96203,-0.63665 z m -200.836846,0.33951 v 15.02596 h 3.975985 v -15.02596 z m 5.096846,0 6.055962,15.02596 h 3.579626 l 5.970695,-15.02596 h -4.089156 l -2.857707,7.66878 c -0.15092,0.42447 -0.292724,0.84884 -0.42478,1.27331 -0.0566,0.20752 -0.193362,0.63641 -0.410311,1.28726 l -0.820622,-2.56057 -2.829801,-7.66878 z m 54.67936,0 v 15.02596 h 3.97547 v -15.02596 z m 15.82384,0 5.71593,15.06833 c -0.23582,0.8395 -0.57522,1.52837 -1.01854,2.06603 -0.44334,0.54709 -1.12716,0.82062 -2.05156,0.82062 -0.49992,0 -1.06158,-0.0613 -1.68413,-0.18397 l 0.35398,3.11247 c 0.73575,0.16036 1.48544,0.24081 2.24948,0.24081 0.7546,0 1.42939,-0.0805 2.02365,-0.24081 0.60368,-0.16035 1.10799,-0.38662 1.5136,-0.67903 0.41503,-0.28298 0.77806,-0.65557 1.08934,-1.11776 0.3207,-0.4622 0.65558,-1.13195 1.00459,-2.00918 l 0.94826,-2.61741 5.30562,-14.4601 h -4.11706 l -3.50883,10.66808 -3.5941,-10.66808 z m -47.812595,2.70216 c 0.8112,0 1.499554,0.3022 2.065507,0.90589 0.565952,0.59425 0.863119,1.46664 0.891419,2.61741 h -5.942273 c -0.0094,-1.08475 0.268621,-1.94305 0.834574,-2.57504 0.565955,-0.63198 1.282977,-0.94826 2.150773,-0.94826 z m 76.995305,0.19844 c 1.03758,0 1.90545,0.39622 2.60346,1.18856 0.70745,0.79233 1.06144,1.92418 1.06144,3.39565 0,1.50922 -0.35399,2.65966 -1.06144,3.45199 -0.69801,0.79234 -1.56588,1.18856 -2.60346,1.18856 -1.03757,0 -1.90996,-0.39622 -2.61741,-1.18856 -0.70744,-0.79233 -1.06091,-1.93322 -1.06091,-3.42356 0,-1.49035 0.35347,-2.63175 1.06091,-3.42408 0.70745,-0.79234 1.57984,-1.18856 2.61741,-1.18856 z m 68.88314,4.90926 v 0.79272 c 0,0.95269 -0.0518,1.59881 -0.15555,1.93838 -0.15092,0.51879 -0.4672,0.95724 -0.94826,1.31568 -0.65085,0.47163 -1.33469,0.70745 -2.05155,0.70745 -0.64142,0 -1.16936,-0.20262 -1.5844,-0.60823 -0.41504,-0.4056 -0.62271,-0.8868 -0.62271,-1.44332 0,-0.56596 0.25946,-1.03308 0.77825,-1.40095 0.33958,-0.22638 1.06112,-0.45716 2.16473,-0.69298 1.10361,-0.23582 1.91013,-0.43896 2.41949,-0.60875 z m 29.59044,0 v 0.79272 c 0,0.95269 -0.0518,1.59881 -0.15555,1.93838 -0.15092,0.51879 -0.46668,0.95724 -0.94774,1.31568 -0.65085,0.47163 -1.33468,0.70745 -2.05156,0.70745 -0.64142,0 -1.16988,-0.20262 -1.58491,-0.60823 -0.41504,-0.4056 -0.6227,-0.8868 -0.6227,-1.44332 0,-0.56596 0.25945,-1.03308 0.77824,-1.40095 0.33958,-0.22638 1.06112,-0.45716 2.16473,-0.69298 1.10361,-0.23582 1.91013,-0.43896 2.41949,-0.60875 z" /></g></g><metadata
     id="metadata29"><rdf:RDF><cc:Work
         rdf:about=""><dc:title>Institute of Information Technology, University of Dhaka - তথ্য প্রযুক্তি ইনস্টিটিউট, ঢাকা বিশ্ববিদ্যালয়</dc:title></cc:Work></rdf:RDF></metadata></svg>
